<svg xmlns="http://www.w3.org/2000/svg" viewBox="0 0 1000 1000">
    <defs>
        <style>.a{fill:#4d71b7;}.b{fill:#4db7b5;}.c{fill:#65bd50;}</style>
    </defs>
    <path class="a"
          d="M1000,500.13A500.17,500.17,0,0,1,991.3,593a494.51,494.51,0,0,1-26,89.76,501.84,501.84,0,0,1-42.53,83.61c-8.39,13.26-17.46,26.11-27.06,38.58s-19.89,24.45-30.65,36A499.35,499.35,0,0,1,41.33,699.74a498.31,498.31,0,0,1-30.91-97.67,505.62,505.62,0,0,1-.07-203.9A497.94,497.94,0,0,1,425.29,5.34a502.41,502.41,0,0,1,540,312.14A496.28,496.28,0,0,1,1000,500.13Zm0,0a459,459,0,0,0-9.49-92.72A450.85,450.85,0,0,0,888.06,201.58a445,445,0,0,0-32.13-33.15A448.66,448.66,0,0,0,613,52.24,454.83,454.83,0,0,0,126.35,335.73a447.57,447.57,0,0,0-23.29,80.76,452.73,452.73,0,0,0-.07,167.3,447.19,447.19,0,0,0,23.22,80.8A456.37,456.37,0,0,0,164.29,740c1.86,3,3.85,5.93,5.76,8.91s4,5.85,6,8.78,4.11,5.77,6.16,8.66,4.25,5.68,6.37,8.52,4.4,5.58,6.59,8.37l6.8,8.22,7,8.08,7.17,7.92a454,454,0,0,0,397,140.78A451.46,451.46,0,0,0,990.52,592.85,459,459,0,0,0,1000,500.13Z"/>
    <path class="b"
          d="M190.47,500.13a355,355,0,0,1,23.88-128,359.52,359.52,0,0,1,29.28-58.95c.68-1.2,1.47-2.33,2.22-3.49l2.27-3.45,4.55-6.92c3.18-4.52,6.44-9,9.66-13.48,3.39-4.38,6.87-8.69,10.32-13l10.91-12.59a357.35,357.35,0,0,1,380.56-98.34A356.77,356.77,0,0,1,897,426a361,361,0,0,1,.08,148.22,357.12,357.12,0,0,1-59.49,135.34c-.86,1.28-1.82,2.49-2.75,3.73l-2.8,3.68-5.63,7.33c-3.87,4.79-7.93,9.43-11.91,14.12-4.15,4.54-8.39,9-12.59,13.47-4.36,4.32-8.81,8.54-13.24,12.77a354.07,354.07,0,0,1-194.26,90.24A359.22,359.22,0,0,1,214.33,628.16,355.25,355.25,0,0,1,190.47,500.13Zm0,0A317,317,0,0,0,197.26,565a309.24,309.24,0,0,0,52.41,118c.74,1.12,1.59,2.18,2.42,3.24l2.47,3.2,4.95,6.39c1.66,2.12,3.48,4.11,5.22,6.16l5.26,6.11c3.65,4,7.39,7.81,11.06,11.71,3.85,3.74,7.78,7.39,11.65,11.07A306.38,306.38,0,0,0,462.46,808a313.27,313.27,0,0,0,61.35,1.1,310.1,310.1,0,0,0,114.73-32.33,312.49,312.49,0,0,0,150.69-166.9,308.07,308.07,0,0,0,.13-219.62,314,314,0,0,0-24.85-50.74c-.57-1-1.24-2-1.88-3l-1.94-3-3.87-6c-2.69-3.91-5.49-7.75-8.22-11.67-2.89-3.77-5.87-7.5-8.8-11.28l-9.3-10.93a313.14,313.14,0,0,0-91.85-70.51A304.08,304.08,0,0,0,583.3,201.6a308.74,308.74,0,0,0-386,233.65A317.68,317.68,0,0,0,190.47,500.13Z"/>
    <path class="c"
          d="M714.28,500.13a213.29,213.29,0,0,1-13,73.41,218.58,218.58,0,0,1-16.08,34.29c-1.6,2.74-3.32,5.42-5,8.14l-5.35,8c-1.88,2.59-3.81,5.15-5.73,7.74L663,639.18A217.35,217.35,0,0,1,602.13,689a213.08,213.08,0,0,1-296.76-98.44,218.55,218.55,0,0,1-.14-180.83,215.31,215.31,0,0,1,23.55-39.75c2.3-3.07,4.75-6,7.14-9s5.05-5.75,7.59-8.6,5.34-5.46,8-8.16,5.59-5.16,8.41-7.7A211.82,211.82,0,0,1,523.81,286a215.24,215.24,0,0,1,40.85,8.92,210.31,210.31,0,0,1,37.53,16.23A217.56,217.56,0,0,1,663.1,361l6.07,7.53c1.92,2.59,3.85,5.14,5.73,7.74s3.59,5.3,5.34,8,3.36,5.42,5,8.16a216,216,0,0,1,16.08,34.29A213.56,213.56,0,0,1,714.28,500.13Zm0,0a171.09,171.09,0,0,0-16-72.19,168.06,168.06,0,0,0-19.16-31.48c-1.88-2.42-3.88-4.74-5.8-7.1s-4.12-4.51-6.17-6.75-4.33-4.27-6.48-6.4-4.56-4-6.82-6a163.8,163.8,0,0,0-96.61-38,168.53,168.53,0,0,0-33.47,1.64,165.74,165.74,0,0,0-60.06,21.48A170,170,0,0,0,390.39,445a167.14,167.14,0,0,0-.14,110.41,172.42,172.42,0,0,0,11.64,26.08c1.17,2.1,2.44,4.14,3.65,6.25l3.9,6.14,4.22,6,4.47,5.86a169.88,169.88,0,0,0,45.51,39.57,162.07,162.07,0,0,0,28.55,13.48A164.4,164.4,0,0,0,654,630.11a168.51,168.51,0,0,0,44.39-57.78A171.3,171.3,0,0,0,714.28,500.13Z"/>
</svg>