<svg id="e3fcs0BMNYy1" xmlns="http://www.w3.org/2000/svg" viewBox="0 0 1000 1000" shape-rendering="geometricPrecision" text-rendering="geometricPrecision">
    <g id="e3fcs0BMNYy2">
        <path d="M139.4,654.04c.3.75.65,1.49.97,2.23l1.98,4.45l3.96,8.89.98,2.23l1.08,2.18l2.18,4.35l4.36,8.71l1.09,2.18l1.19,2.12l2.39,4.24l4.78,8.49c.77,1.43,1.64,2.81,2.51,4.18l2.59,4.13l5.19,8.25c14.29,21.71,30.57,42.17,48.78,60.81c36.39,37.31,80.1,67.66,128.2,88.57c24.04,10.46,49.14,18.63,74.86,24.22c25.71,5.61,52.03,8.68,78.43,9.21c52.8.98,106.05-8.35,155.58-27.92c49.53-19.5,95.25-49.06,133.56-86.45c38.32-37.36,69.21-82.53,90.06-132.06c10.4-24.76,18.44-50.56,23.71-76.93c5.32-26.36,7.95-53.25,7.99-80.13-.05-26.87-2.69-53.76-8.01-80.12-5.31-26.36-13.32-52.16-23.73-76.92-20.87-49.51-51.75-94.66-90.07-132.02-38.31-37.37-84.02-66.93-133.54-86.42-49.52-19.54-102.75-28.89-155.54-27.92-26.4.53-52.71,3.6-78.42,9.2-25.72,5.59-50.81,13.76-74.85,24.2-24.05,10.44-46.99,23.29-68.5,38.12-21.51,14.84-41.48,31.81-59.71,50.42-18.2,18.65-34.5,39.09-48.79,60.8-14.29,21.73-26.32,44.88-36.16,68.89-19.63,48.07-29.59,99.93-29.62,151.77.05-25.92,2.59-51.84,7.72-77.24c5.1-25.41,12.84-50.26,22.87-74.12c20.11-47.71,49.89-91.24,86.84-127.23c36.94-36.02,81.02-64.48,128.73-83.24c47.71-18.81,98.99-27.76,149.88-26.8c25.45.53,50.79,3.51,75.55,8.92c24.76,5.4,48.92,13.28,72.06,23.36c13.11,5.71,25.86,12.17,38.23,19.28-12.45-6.96-25.27-13.26-38.42-18.79-23.23-9.78-47.43-17.31-72.17-22.37-24.73-5.07-49.97-7.7-75.24-7.9-50.54-.31-101.24,9.26-148.17,28.44-46.93,19.14-90.1,47.62-126.14,83.4-36.01,35.79-65.07,78.68-84.59,125.64-19.57,46.94-29.65,97.79-29.71,148.65.06,25.43,2.57,50.86,7.54,75.8s12.41,49.38,22.17,72.86c19.55,46.95,48.58,89.85,84.6,125.63c36.06,35.76,79.21,64.25,126.14,83.39c46.93,19.17,97.62,28.75,148.16,28.44c25.27-.2,50.51-2.82,75.24-7.89c24.73-5.06,48.93-12.59,72.16-22.37c11.11-4.68,21.99-9.89,32.61-15.59-10.55,5.83-21.37,11.19-32.44,16.01-23.14,10.06-47.28,17.96-72.04,23.36-24.75,5.42-50.09,8.39-75.53,8.93-50.88.97-102.15-7.98-149.86-26.77-47.71-18.74-91.79-47.2-128.74-83.21-36.95-35.99-66.74-79.51-86.85-127.22-10.03-23.86-17.76-48.71-22.87-74.12-5.13-25.4-7.67-51.32-7.72-77.24.04,51.84,9.99,103.69,29.62,151.77l.89,2.27ZM651.22,853.12c-46.33,18.92-96.36,28.37-146.27,28.07-24.96-.2-49.87-2.79-74.28-7.8-24.41-5-48.3-12.43-71.23-22.09-22.93-9.65-44.9-21.58-65.48-35.51-20.6-13.93-39.77-29.91-57.29-47.51-17.49-17.64-33.25-36.97-46.97-57.65-13.74-20.67-25.37-42.71-34.85-65.62-9.47-22.92-16.66-46.77-21.44-71.09-4.79-24.32-7.17-49.12-7.17-73.91.02-24.8,2.38-49.59,7.18-73.91c4.78-24.32,11.98-48.17,21.44-71.09c9.49-22.91,21.13-44.94,34.86-65.61c13.72-20.68,29.47-40.01,46.96-57.65c17.52-17.6,36.7-33.57,57.29-47.5c20.58-13.94,42.54-25.86,65.48-35.51c22.93-9.65,46.82-17.09,71.23-22.08c24.41-5.01,49.32-7.6,74.28-7.8c49.91-.31,99.94,9.14,146.26,28.06c46.32,18.89,88.94,47,124.54,82.31c4.13,4.11,8.16,8.32,12.1,12.61c29.46,33.13,53.21,71.18,69.82,112.1c18.88,46.27,28.42,96.15,28.47,146.09-.04,49.94-9.64,99.8-28.51,146.07-9.47,23.11-21.05,45.38-34.79,66.31-11.41,17.35-24.17,33.83-38.18,49.22-2.93,3.11-5.89,6.19-8.92,9.2-35.59,35.28-78.21,63.4-124.53,82.29Z"
              fill="#00aa83"/>
    </g>
    <g id="e3fcs0BMNYy4">
        <path d="M801.98,500c-.02,38.88-7.9,77.76-23.2,113.42-15.24,35.68-37.81,68.09-65.69,94.72-27.9,26.61-61.04,47.43-96.72,60.86-35.69,13.47-73.81,19.47-111.42,18.17-.48-.02-.96-.05-1.44-.07.48.01.96.03,1.44.03c37.58.32,75.32-6.71,110.27-20.91c34.95-14.18,67.15-35.31,94.03-61.92c26.85-26.62,48.56-58.54,63.12-93.53c14.6-34.97,22.12-72.86,22.18-110.76-.07-37.9-7.59-75.79-22.19-110.76-14.59-34.98-36.27-66.9-63.13-93.52-26.89-26.6-59.07-47.74-94.02-61.91-34.51-14.01-71.71-21.03-108.81-20.91c37.13-1.11,74.71,4.89,109.94,18.17c35.68,13.42,68.82,34.23,96.72,60.82c27.88,26.61,50.46,59.02,65.71,94.7c15.31,35.64,23.19,74.51,23.21,113.4-.01-38.88-7.41-77.77-21.95-113.93-14.49-36.18-36.03-69.62-63.14-98-27.1-28.39-59.8-51.69-95.98-68.01-18.09-8.15-37.01-14.64-56.47-19.16-19.45-4.54-39.41-7.16-59.5-7.86-40.15-1.31-80.92,5.18-119.02,19.66-38.1,14.43-73.43,36.72-103.15,65.15-29.7,28.45-53.74,63.05-69.98,101.15l-2.93,7.19c-.95,2.41-2.02,4.77-2.82,7.24l-2.55,7.34c-.82,2.45-1.76,4.88-2.44,7.38l-2.18,7.46c-.7,2.49-1.52,4.96-2.07,7.49l-1.79,7.56-.89,3.78-.44,1.89-.35,1.91c-4.15,20.32-6.18,41.05-6.22,61.76.01,41.43,8.42,82.93,24.74,120.99c16.25,38.08,40.3,72.67,70,101.1c29.72,28.41,65.04,50.69,103.13,65.12c38.09,14.45,78.83,20.97,118.97,19.66c20.07-.69,40.03-3.31,59.48-7.84c19.46-4.51,38.37-11.01,56.46-19.14c36.18-16.31,68.88-39.59,95.98-67.97c27.11-28.37,48.65-61.8,63.15-97.98c14.55-36.17,21.95-75.06,21.96-113.94ZM660.94,266.54c15.21,10.32,29.35,22.18,42.29,35.19c12.91,13.05,24.53,27.36,34.65,42.65c10.14,15.28,18.69,31.58,25.69,48.5c14,33.86,21.13,70.49,21.09,107.12.03,36.63-7.09,73.25-21.09,107.11-7.01,16.92-15.58,33.21-25.7,48.49-10.12,15.29-21.74,29.6-34.65,42.65-12.93,13.02-27.09,24.86-42.29,35.18-15.2,10.33-31.42,19.18-48.36,26.36-16.95,7.17-34.6,12.72-52.65,16.46-18.05,3.75-36.49,5.71-54.96,5.9-36.94.32-74.01-6.59-108.37-20.53-.43-.18-.86-.37-1.29-.54-33.26-15.29-63.35-36.88-88.3-63.12-25.29-26.57-45.36-57.83-58.84-91.6-13.54-33.77-20.4-70.02-20.42-106.36.02-36.35,6.93-72.58,20.48-106.34c13.5-33.76,33.57-65,58.86-91.55c12.67-13.25,26.57-25.39,41.59-36.06c15.03-10.64,31.07-19.99,47.96-27.62.57-.26,1.14-.5,1.71-.75c33.87-13.48,70.31-20.17,106.64-19.86c36.95.34,73.74,7.95,107.62,22.36c16.92,7.18,33.14,16.02,48.34,26.36Z"
              fill="#65bd50"/>
    </g>
    <g id="e3fcs0BMNYy6">
        <g>
            <path d="M990.46,596.57c-6.32,31.78-15.89,62.89-28.37,92.76-24.98,59.76-62.01,114.37-108.04,159.74-46,45.41-100.99,81.56-160.75,105.63-29.87,12.07-60.92,21.09-92.52,27.01s-63.75,8.69-95.84,8.38c-32.09-.35-64.11-3.79-95.45-10.34-31.34-6.53-61.99-16.19-91.39-28.71-58.81-25.01-112.47-61.68-157.19-107.05C116.18,798.66,80.4,744.63,56.3,685.82C32.12,627.04,19.73,563.54,19.79,500c-.05-63.54,12.36-127.03,36.53-185.81c12.1-29.37,27.01-57.62,44.58-84.13c17.58-26.5,37.68-51.36,60.05-74.04c22.39-22.65,46.94-43.19,73.31-61.14C260.63,76.94,288.73,61.5,318.13,49s60.04-22.17,91.38-28.7c31.34-6.55,63.35-9.99,95.44-10.34c32.09-.32,64.23,2.45,95.83,8.37c31.59,5.91,62.64,14.94,92.51,27c59.76,24.07,114.74,60.21,160.75,105.61c46.03,45.37,83.06,99.98,108.05,159.73c12.48,29.87,22.05,60.99,28.37,92.76s9.49,64.17,9.54,96.57c.07-64.81-12.59-129.62-37.26-189.61-12.36-29.98-27.55-58.81-45.49-85.86C899.3,197.5,878.8,172.12,855.97,149c-45.63-46.27-100.38-83.68-160.4-109.19-30-12.77-61.27-22.62-93.25-29.28C570.34,3.85,537.67,0.35,504.95,0c-32.72-.32-65.52,2.52-97.76,8.56s-63.92,15.25-94.39,27.57C251.83,60.7,195.75,97.58,148.83,143.9c-46.94,46.29-84.7,102-110.18,162.96-12.73,30.48-22.5,62.22-28.93,94.64C3.28,433.92,0.03,466.96,0,500c.05,33.04,3.28,66.08,9.73,98.5c6.46,32.41,16.21,64.15,28.94,94.63c25.49,60.96,63.25,116.66,110.19,162.94c46.92,46.31,102.99,83.18,163.95,107.76c30.47,12.31,62.15,21.53,94.38,27.57s65.03,8.88,97.75,8.56c32.72-.35,65.38-3.85,97.36-10.52c31.98-6.65,63.25-16.51,93.25-29.27c30.01-12.75,58.69-28.5,85.59-46.8c26.91-18.31,51.96-39.27,74.8-62.37c22.83-23.13,43.34-48.49,61.28-75.53c17.94-27.05,33.14-55.88,45.49-85.85c24.67-59.98,37.34-124.8,37.27-189.61-.03,32.39-3.2,64.79-9.52,96.56Z"
                  fill="#4d71b7"/>
        </g>
        <g>
            <path d="M955.37,313.44c-24.51-58.93-60.92-112.79-106.11-157.73-45.21-44.94-99.34-80.8-158.24-104.9-29.45-12.06-60.09-21.15-91.31-27.15-31.22-6.01-63.01-8.92-94.76-8.77-31.75.18-63.48,3.42-94.56,9.75-31.09,6.31-61.53,15.73-90.75,27.99s-57.21,27.42-83.45,45.15c-26.24,17.72-50.7,38.04-73.03,60.45-22.3,22.44-42.4,47.06-59.91,73.39-17.53,26.32-32.4,54.38-44.5,83.57C46.67,344.4,37.49,374.8,31.39,405.8c-6.11,31-9.14,62.6-9.12,94.2.05-31.59,3.14-63.18,9.31-94.16c6.16-30.98,15.39-61.34,27.52-90.5C83.34,257,119.39,203.69,164.13,159.2c44.75-44.5,98.34-79.98,156.64-103.84c29.15-11.94,59.48-20.93,90.38-26.88s62.37-8.83,93.8-8.68c31.44.18,62.84,3.39,93.61,9.66c30.77,6.25,60.9,15.57,89.81,27.72c28.92,12.14,56.63,27.14,82.59,44.69c25.98,17.54,50.18,37.66,72.28,59.84c22.08,22.21,41.97,46.58,59.3,72.64c17.35,26.05,32.06,53.83,44.03,82.73c11.95,28.9,21.03,58.99,27.07,89.68c6.04,30.68,9.04,61.96,9.03,93.24s-2.99,62.55-9.04,93.24c-6.04,30.68-15.12,60.77-27.07,89.67-11.97,28.89-26.7,56.66-44.04,82.72-17.33,26.06-37.22,50.43-59.3,72.64-22.1,22.19-46.31,42.29-72.28,59.83-25.97,17.55-53.67,32.55-82.59,44.69s-59.04,21.46-89.81,27.71c-30.77,6.26-62.17,9.47-93.6,9.66-31.44.15-62.9-2.73-93.8-8.67-30.9-5.95-61.23-14.93-90.37-26.87-58.3-23.85-111.89-59.34-156.64-103.83C119.4,796.31,83.35,743,59.1,684.66c-12.13-29.16-21.36-59.52-27.52-90.5-6.17-30.98-9.26-62.57-9.31-94.16-.01,31.59,3.01,63.19,9.12,94.2c6.1,31,15.28,61.4,27.35,90.61c12.1,29.19,26.96,57.26,44.49,83.58c17.51,26.33,37.61,50.95,59.91,73.39c22.33,22.41,46.78,42.74,73.03,60.46c26.24,17.73,54.23,32.89,83.45,45.15c29.22,12.27,59.66,21.69,90.75,28c31.09,6.33,62.81,9.57,94.57,9.75c31.75.15,63.55-2.76,94.76-8.77c31.22-6.01,61.87-15.09,91.31-27.16c58.91-24.1,113.04-59.95,158.25-104.91c45.19-44.94,81.62-98.8,106.11-157.74c12.25-29.46,21.58-60.14,27.8-91.44c6.23-31.3,9.36-63.21,9.39-95.12-.05-31.91-3.17-63.82-9.4-95.12-6.21-31.3-15.54-61.98-27.79-91.44Z"
                  fill="#4d71b7"/>
        </g>
    </g>
    <script><![CDATA[!function(t,n){"object"==typeof exports&&"undefined"!=typeof module?module.exports=n():"function"==typeof define&&define.amd?define(n):((t="undefined"!=typeof globalThis?globalThis:t||self).__SVGATOR_PLAYER__=t.__SVGATOR_PLAYER__||{},t.__SVGATOR_PLAYER__["5c7f360c"]=n())}(this,(function(){"use strict";function t(t,n){var e=Object.keys(t);if(Object.getOwnPropertySymbols){var r=Object.getOwnPropertySymbols(t);n&&(r=r.filter((function(n){return Object.getOwnPropertyDescriptor(t,n).enumerable}))),e.push.apply(e,r)}return e}function n(n){for(var e=1;e<arguments.length;e++){var r=null!=arguments[e]?arguments[e]:{};e%2?t(Object(r),!0).forEach((function(t){o(n,t,r[t])})):Object.getOwnPropertyDescriptors?Object.defineProperties(n,Object.getOwnPropertyDescriptors(r)):t(Object(r)).forEach((function(t){Object.defineProperty(n,t,Object.getOwnPropertyDescriptor(r,t))}))}return n}function e(t){return(e="function"==typeof Symbol&&"symbol"==typeof Symbol.iterator?function(t){return typeof t}:function(t){return t&&"function"==typeof Symbol&&t.constructor===Symbol&&t!==Symbol.prototype?"symbol":typeof t})(t)}function r(t,n){if(!(t instanceof n))throw new TypeError("Cannot call a class as a function")}function i(t,n){for(var e=0;e<n.length;e++){var r=n[e];r.enumerable=r.enumerable||!1,r.configurable=!0,"value"in r&&(r.writable=!0),Object.defineProperty(t,r.key,r)}}function u(t,n,e){return n&&i(t.prototype,n),e&&i(t,e),t}function o(t,n,e){return n in t?Object.defineProperty(t,n,{value:e,enumerable:!0,configurable:!0,writable:!0}):t[n]=e,t}function a(t){return(a=Object.setPrototypeOf?Object.getPrototypeOf:function(t){return t.__proto__||Object.getPrototypeOf(t)})(t)}function l(t,n){return(l=Object.setPrototypeOf||function(t,n){return t.__proto__=n,t})(t,n)}function s(){if("undefined"==typeof Reflect||!Reflect.construct)return!1;if(Reflect.construct.sham)return!1;if("function"==typeof Proxy)return!0;try{return Boolean.prototype.valueOf.call(Reflect.construct(Boolean,[],(function(){}))),!0}catch(t){return!1}}function f(t,n,e){return(f=s()?Reflect.construct:function(t,n,e){var r=[null];r.push.apply(r,n);var i=new(Function.bind.apply(t,r));return e&&l(i,e.prototype),i}).apply(null,arguments)}function c(t,n){if(n&&("object"==typeof n||"function"==typeof n))return n;if(void 0!==n)throw new TypeError("Derived constructors may only return object or undefined");return function(t){if(void 0===t)throw new ReferenceError("this hasn't been initialised - super() hasn't been called");return t}(t)}function h(t,n,e){return(h="undefined"!=typeof Reflect&&Reflect.get?Reflect.get:function(t,n,e){var r=function(t,n){for(;!Object.prototype.hasOwnProperty.call(t,n)&&null!==(t=a(t)););return t}(t,n);if(r){var i=Object.getOwnPropertyDescriptor(r,n);return i.get?i.get.call(e):i.value}})(t,n,e||t)}function v(t){return function(t){if(Array.isArray(t))return y(t)}(t)||function(t){if("undefined"!=typeof Symbol&&null!=t[Symbol.iterator]||null!=t["@@iterator"])return Array.from(t)}(t)||function(t,n){if(!t)return;if("string"==typeof t)return y(t,n);var e=Object.prototype.toString.call(t).slice(8,-1);"Object"===e&&t.constructor&&(e=t.constructor.name);if("Map"===e||"Set"===e)return Array.from(t);if("Arguments"===e||/^(?:Ui|I)nt(?:8|16|32)(?:Clamped)?Array$/.test(e))return y(t,n)}(t)||function(){throw new TypeError("Invalid attempt to spread non-iterable instance.\nIn order to be iterable, non-array objects must have a [Symbol.iterator]() method.")}()}function y(t,n){(null==n||n>t.length)&&(n=t.length);for(var e=0,r=new Array(n);e<n;e++)r[e]=t[e];return r}Number.isInteger||(Number.isInteger=function(t){return"number"==typeof t&&isFinite(t)&&Math.floor(t)===t}),Number.EPSILON||(Number.EPSILON=2220446049250313e-31);var g=d(Math.pow(10,-6));function d(t){var n=arguments.length>1&&void 0!==arguments[1]?arguments[1]:6;if(Number.isInteger(t))return t;var e=Math.pow(10,n);return Math.round((+t+Number.EPSILON)*e)/e}function p(t,n){var e=arguments.length>2&&void 0!==arguments[2]?arguments[2]:g;return Math.abs(t-n)<e}var m=Math.PI/180;function b(t){return t}function w(t,n,e){var r=1-e;return 3*e*r*(t*r+n*e)+e*e*e}function x(){var t=arguments.length>0&&void 0!==arguments[0]?arguments[0]:0,n=arguments.length>1&&void 0!==arguments[1]?arguments[1]:0,e=arguments.length>2&&void 0!==arguments[2]?arguments[2]:1,r=arguments.length>3&&void 0!==arguments[3]?arguments[3]:1;return t<0||t>1||e<0||e>1?null:p(t,n)&&p(e,r)?b:function(i){if(i<=0)return t>0?i*n/t:0===n&&e>0?i*r/e:0;if(i>=1)return e<1?1+(i-1)*(r-1)/(e-1):1===e&&t<1?1+(i-1)*(n-1)/(t-1):1;for(var u,o=0,a=1;o<a;){var l=w(t,e,u=(o+a)/2);if(p(i,l))break;l<i?o=u:a=u}return w(n,r,u)}}function A(){return 1}function k(t){return 1===t?1:0}function _(){var t=arguments.length>0&&void 0!==arguments[0]?arguments[0]:1,n=arguments.length>1&&void 0!==arguments[1]?arguments[1]:0;if(1===t){if(0===n)return k;if(1===n)return A}var e=1/t;return function(t){return t>=1?1:(t+=n*e)-t%e}}var S=Math.sin,O=Math.cos,j=Math.acos,M=Math.asin,P=Math.tan,E=Math.atan2,I=Math.PI/180,R=180/Math.PI,F=Math.sqrt,N=function(){function t(){var n=arguments.length>0&&void 0!==arguments[0]?arguments[0]:1,e=arguments.length>1&&void 0!==arguments[1]?arguments[1]:0,i=arguments.length>2&&void 0!==arguments[2]?arguments[2]:0,u=arguments.length>3&&void 0!==arguments[3]?arguments[3]:1,o=arguments.length>4&&void 0!==arguments[4]?arguments[4]:0,a=arguments.length>5&&void 0!==arguments[5]?arguments[5]:0;r(this,t),this.m=[n,e,i,u,o,a],this.i=null,this.w=null,this.s=null}return u(t,[{key:"determinant",get:function(){var t=this.m;return t[0]*t[3]-t[1]*t[2]}},{key:"isIdentity",get:function(){if(null===this.i){var t=this.m;this.i=1===t[0]&&0===t[1]&&0===t[2]&&1===t[3]&&0===t[4]&&0===t[5]}return this.i}},{key:"point",value:function(t,n){var e=this.m;return{x:e[0]*t+e[2]*n+e[4],y:e[1]*t+e[3]*n+e[5]}}},{key:"translateSelf",value:function(){var t=arguments.length>0&&void 0!==arguments[0]?arguments[0]:0,n=arguments.length>1&&void 0!==arguments[1]?arguments[1]:0;if(!t&&!n)return this;var e=this.m;return e[4]+=e[0]*t+e[2]*n,e[5]+=e[1]*t+e[3]*n,this.w=this.s=this.i=null,this}},{key:"rotateSelf",value:function(){var t=arguments.length>0&&void 0!==arguments[0]?arguments[0]:0;if(t%=360){var n=S(t*=I),e=O(t),r=this.m,i=r[0],u=r[1];r[0]=i*e+r[2]*n,r[1]=u*e+r[3]*n,r[2]=r[2]*e-i*n,r[3]=r[3]*e-u*n,this.w=this.s=this.i=null}return this}},{key:"scaleSelf",value:function(){var t=arguments.length>0&&void 0!==arguments[0]?arguments[0]:1,n=arguments.length>1&&void 0!==arguments[1]?arguments[1]:1;if(1!==t||1!==n){var e=this.m;e[0]*=t,e[1]*=t,e[2]*=n,e[3]*=n,this.w=this.s=this.i=null}return this}},{key:"skewSelf",value:function(t,n){if(n%=360,(t%=360)||n){var e=this.m,r=e[0],i=e[1],u=e[2],o=e[3];t&&(t=P(t*I),e[2]+=r*t,e[3]+=i*t),n&&(n=P(n*I),e[0]+=u*n,e[1]+=o*n),this.w=this.s=this.i=null}return this}},{key:"resetSelf",value:function(){var t=arguments.length>0&&void 0!==arguments[0]?arguments[0]:1,n=arguments.length>1&&void 0!==arguments[1]?arguments[1]:0,e=arguments.length>2&&void 0!==arguments[2]?arguments[2]:0,r=arguments.length>3&&void 0!==arguments[3]?arguments[3]:1,i=arguments.length>4&&void 0!==arguments[4]?arguments[4]:0,u=arguments.length>5&&void 0!==arguments[5]?arguments[5]:0,o=this.m;return o[0]=t,o[1]=n,o[2]=e,o[3]=r,o[4]=i,o[5]=u,this.w=this.s=this.i=null,this}},{key:"recomposeSelf",value:function(){var t=arguments.length>0&&void 0!==arguments[0]?arguments[0]:null,n=arguments.length>1&&void 0!==arguments[1]?arguments[1]:null,e=arguments.length>2&&void 0!==arguments[2]?arguments[2]:null,r=arguments.length>3&&void 0!==arguments[3]?arguments[3]:null,i=arguments.length>4&&void 0!==arguments[4]?arguments[4]:null;return this.isIdentity||this.resetSelf(),t&&(t.x||t.y)&&this.translateSelf(t.x,t.y),n&&this.rotateSelf(n),e&&(e.x&&this.skewSelf(e.x,0),e.y&&this.skewSelf(0,e.y)),!r||1===r.x&&1===r.y||this.scaleSelf(r.x,r.y),i&&(i.x||i.y)&&this.translateSelf(i.x,i.y),this}},{key:"decompose",value:function(){var t=arguments.length>0&&void 0!==arguments[0]?arguments[0]:0,n=arguments.length>1&&void 0!==arguments[1]?arguments[1]:0,e=this.m,r=e[0]*e[0]+e[1]*e[1],i=[[e[0],e[1]],[e[2],e[3]]],u=F(r);if(0===u)return{origin:{x:d(e[4]),y:d(e[5])},translate:{x:d(t),y:d(n)},scale:{x:0,y:0},skew:{x:0,y:0},rotate:0};i[0][0]/=u,i[0][1]/=u;var o=e[0]*e[3]-e[1]*e[2]<0;o&&(u=-u);var a=i[0][0]*i[1][0]+i[0][1]*i[1][1];i[1][0]-=i[0][0]*a,i[1][1]-=i[0][1]*a;var l=F(i[1][0]*i[1][0]+i[1][1]*i[1][1]);if(0===l)return{origin:{x:d(e[4]),y:d(e[5])},translate:{x:d(t),y:d(n)},scale:{x:d(u),y:0},skew:{x:0,y:0},rotate:0};i[1][0]/=l,i[1][1]/=l,a/=l;var s=0;return i[1][1]<0?(s=j(i[1][1])*R,i[0][1]<0&&(s=360-s)):s=M(i[0][1])*R,o&&(s=-s),a=E(a,F(i[0][0]*i[0][0]+i[0][1]*i[0][1]))*R,o&&(a=-a),{origin:{x:d(e[4]),y:d(e[5])},translate:{x:d(t),y:d(n)},scale:{x:d(u),y:d(l)},skew:{x:d(a),y:0},rotate:d(s)}}},{key:"clone",value:function(){var t=this.m;return new this.constructor(t[0],t[1],t[2],t[3],t[4],t[5])}},{key:"toString",value:function(){var t=arguments.length>0&&void 0!==arguments[0]?arguments[0]:" ";if(null===this.s){var n=this.m.map((function(t){return d(t)}));1===n[0]&&0===n[1]&&0===n[2]&&1===n[3]?this.s="translate("+n[4]+t+n[5]+")":this.s="matrix("+n.join(t)+")"}return this.s}}],[{key:"create",value:function(t){return t?Array.isArray(t)?f(this,v(t)):t instanceof this?t.clone():(new this).recomposeSelf(t.origin,t.rotate,t.skew,t.scale,t.translate):new this}}]),t}();function T(t,n,e){return t>=.5?e:n}function q(t,n,e){return 0===t||n===e?n:t*(e-n)+n}function B(t,n,e){var r=q(t,n,e);return r<=0?0:r}function L(t,n,e){var r=q(t,n,e);return r<=0?0:r>=1?1:r}function C(t,n,e){return 0===t?n:1===t?e:{x:q(t,n.x,e.x),y:q(t,n.y,e.y)}}function D(t,n,e){var r=function(t,n,e){return Math.round(q(t,n,e))}(t,n,e);return r<=0?0:r>=255?255:r}function z(t,n,e){return 0===t?n:1===t?e:{r:D(t,n.r,e.r),g:D(t,n.g,e.g),b:D(t,n.b,e.b),a:q(t,null==n.a?1:n.a,null==e.a?1:e.a)}}function V(t,n){for(var e=[],r=0;r<t;r++)e.push(n);return e}function G(t,n){if(--n<=0)return t;var e=(t=Object.assign([],t)).length;do{for(var r=0;r<e;r++)t.push(t[r])}while(--n>0);return t}var Y,$=function(){function t(n){r(this,t),this.list=n,this.length=n.length}return u(t,[{key:"setAttribute",value:function(t,n){for(var e=this.list,r=0;r<this.length;r++)e[r].setAttribute(t,n)}},{key:"removeAttribute",value:function(t){for(var n=this.list,e=0;e<this.length;e++)n[e].removeAttribute(t)}},{key:"style",value:function(t,n){for(var e=this.list,r=0;r<this.length;r++)e[r].style[t]=n}}]),t}(),U=/-./g,Q=function(t,n){return n.toUpperCase()};function H(t){return"function"==typeof t?t:T}function J(t){return t?"function"==typeof t?t:Array.isArray(t)?function(t){var n=arguments.length>1&&void 0!==arguments[1]?arguments[1]:b;if(!Array.isArray(t))return n;switch(t.length){case 1:return _(t[0])||n;case 2:return _(t[0],t[1])||n;case 4:return x(t[0],t[1],t[2],t[3])||n}return n}(t,null):function(t,n){var e=arguments.length>2&&void 0!==arguments[2]?arguments[2]:b;switch(t){case"linear":return b;case"steps":return _(n.steps||1,n.jump||0)||e;case"bezier":case"cubic-bezier":return x(n.x1||0,n.y1||0,n.x2||0,n.y2||0)||e}return e}(t.type,t.value,null):null}function Z(t,n,e){var r=arguments.length>3&&void 0!==arguments[3]&&arguments[3],i=n.length-1;if(t<=n[0].t)return r?[0,0,n[0].v]:n[0].v;if(t>=n[i].t)return r?[i,1,n[i].v]:n[i].v;var u,o=n[0],a=null;for(u=1;u<=i;u++){if(!(t>n[u].t)){a=n[u];break}o=n[u]}return null==a?r?[i,1,n[i].v]:n[i].v:o.t===a.t?r?[u,1,a.v]:a.v:(t=(t-o.t)/(a.t-o.t),o.e&&(t=o.e(t)),r?[u,t,e(t,o.v,a.v)]:e(t,o.v,a.v))}function K(t,n){var e=arguments.length>2&&void 0!==arguments[2]?arguments[2]:null;return t&&t.length?"function"!=typeof n?null:("function"!=typeof e&&(e=null),function(r){var i=Z(r,t,n);return null!=i&&e&&(i=e(i)),i}):null}function W(t,n){return t.t-n.t}function X(t,n,r,i,u){var o,a="@"===r[0],l="#"===r[0],s=Y[r],f=T;switch(a?(o=r.substr(1),r=o.replace(U,Q)):l&&(r=r.substr(1)),e(s)){case"function":if(f=s(i,u,Z,J,r,a,n,t),l)return f;break;case"string":f=K(i,H(s));break;case"object":if((f=K(i,H(s.i),s.f))&&"function"==typeof s.u)return s.u(n,f,r,a,t)}return f?function(t,n,e){if(arguments.length>3&&void 0!==arguments[3]&&arguments[3])return t instanceof $?function(r){return t.style(n,e(r))}:function(r){return t.style[n]=e(r)};if(Array.isArray(n)){var r=n.length;return function(i){var u=e(i);if(null==u)for(var o=0;o<r;o++)t[o].removeAttribute(n);else for(var a=0;a<r;a++)t[a].setAttribute(n,u)}}return function(r){var i=e(r);null==i?t.removeAttribute(n):t.setAttribute(n,i)}}(n,r,f,a):null}function tt(t,n,r,i){if(!i||"object"!==e(i))return null;var u=null,o=null;return Array.isArray(i)?o=function(t){if(!t||!t.length)return null;for(var n=0;n<t.length;n++)t[n].e&&(t[n].e=J(t[n].e));return t.sort(W)}(i):(o=i.keys,u=i.data||null),o?X(t,n,r,o,u):null}function nt(t,n,e){if(!e)return null;var r=[];for(var i in e)if(e.hasOwnProperty(i)){var u=tt(t,n,i,e[i]);u&&r.push(u)}return r.length?r:null}function et(t,n){if(!n.settings.duration||n.settings.duration<0)return null;var e,r,i,u,o,a=function(t,n){if(!n)return null;var e=[];if(Array.isArray(n))for(var r=n.length,i=0;i<r;i++){var u=n[i];if(2===u.length){var o=null;if("string"==typeof u[0])o=t.getElementById(u[0]);else if(Array.isArray(u[0])){o=[];for(var a=0;a<u[0].length;a++)if("string"==typeof u[0][a]){var l=t.getElementById(u[0][a]);l&&o.push(l)}o=o.length?1===o.length?o[0]:new $(o):null}if(o){var s=nt(t,o,u[1]);s&&(e=e.concat(s))}}}else for(var f in n)if(n.hasOwnProperty(f)){var c=t.getElementById(f);if(c){var h=nt(t,c,n[f]);h&&(e=e.concat(h))}}return e.length?e:null}(t,n.elements);return a?(e=a,r=n.settings,i=r.duration,u=e.length,o=null,function(t,n){var a=r.iterations||1/0,l=(r.alternate&&a%2==0)^r.direction>0?i:0,s=t%i,f=1+(t-s)/i;n*=r.direction,r.alternate&&f%2==0&&(n=-n);var c=!1;if(f>a)s=l,c=!0,-1===r.fill&&(s=r.direction>0?0:i);else if(n<0&&(s=i-s),s===o)return!1;o=s;for(var h=0;h<u;h++)e[h](s);return c}):null}function rt(t,n){if(Y=n,!t||!t.root||!Array.isArray(t.animations))return null;var e=function(t){for(var n=document.getElementsByTagName("svg"),e=0;e<n.length;e++)if(n[e].id===t.root&&!n[e].svgatorAnimation)return n[e].svgatorAnimation=!0,n[e];return null}(t);if(!e)return null;var r=t.animations.map((function(t){return et(e,t)})).filter((function(t){return!!t}));return r.length?{svg:e,animations:r,animationSettings:t.animationSettings,options:t.options||void 0}:null}function it(t){return+("0x"+(t.replace(/[^0-9a-fA-F]+/g,"")||27))}function ut(t,n,e){return!t||!e||n>t.length?t:t.substring(0,n)+ut(t.substring(n+1),e,e)}function ot(t){var n=arguments.length>1&&void 0!==arguments[1]?arguments[1]:27;return!t||t%n?t%n:ot(t/n,n)}function at(t,n,e){if(t&&t.length){var r=it(e),i=it(n),u=ot(r)+5,o=ut(t,ot(r,5),u);return o=o.replace(/\x7c$/g,"==").replace(/\x2f$/g,"="),o=function(t,n,e){var r=+("0x"+t.substring(0,4));t=t.substring(4);for(var i=n%r+e%27,u=[],o=0;o<t.length;o+=2)if("|"!==t[o]){var a=+("0x"+t[o]+t[o+1])-i;u.push(a)}else{var l=+("0x"+t.substring(o+1,o+1+4))-i;o+=3,u.push(l)}return String.fromCharCode.apply(String,u)}(o=(o=atob(o)).replace(/[\x41-\x5A]/g,""),i,r),o=JSON.parse(o)}}var lt=[{key:"alternate",def:!1},{key:"fill",def:1},{key:"iterations",def:0},{key:"direction",def:1},{key:"speed",def:1},{key:"fps",def:100}],st=function(){function t(n,e){var i=this,u=arguments.length>2&&void 0!==arguments[2]?arguments[2]:null;r(this,t),this._id=0,this._running=!1,this._rollingBack=!1,this._animations=n,this._settings=e,(!u||u<"2022-05-02")&&delete this._settings.speed,lt.forEach((function(t){i._settings[t.key]=i._settings[t.key]||t.def})),this.duration=e.duration,this.offset=e.offset||0,this.rollbackStartOffset=0}return u(t,[{key:"alternate",get:function(){return this._settings.alternate}},{key:"fill",get:function(){return this._settings.fill}},{key:"iterations",get:function(){return this._settings.iterations}},{key:"direction",get:function(){return this._settings.direction}},{key:"speed",get:function(){return this._settings.speed}},{key:"fps",get:function(){return this._settings.fps}},{key:"maxFiniteDuration",get:function(){return this.iterations>0?this.iterations*this.duration:this.duration}},{key:"_apply",value:function(t){for(var n=arguments.length>1&&void 0!==arguments[1]?arguments[1]:{},e=this._animations,r=e.length,i=0,u=0;u<r;u++)n[u]?i++:(n[u]=e[u](t,1),n[u]&&i++);return i}},{key:"_rollback",value:function(t){var n=this,e=1/0,r=null;this.rollbackStartOffset=t,this._rollingBack=!0,this._running=!0;this._id=window.requestAnimationFrame((function i(u){if(n._rollingBack){null==r&&(r=u);var o=Math.round(t-(u-r)*n.speed);if(o>n.duration&&e!==1/0){var a=!!n.alternate&&o/n.duration%2>1,l=o%n.duration;o=(l+=a?n.duration:0)||n.duration}var s=(n.fps?1e3/n.fps:0)*n.speed,f=Math.max(0,o);f<e-s&&(n.offset=f,e=f,n._apply(f));var c=n.iterations>0&&-1===n.fill&&o>=n.maxFiniteDuration;(o<=0||n.offset<o||c)&&n.stop(),n._id=window.requestAnimationFrame(i)}}))}},{key:"_start",value:function(){var t=this,n=arguments.length>0&&void 0!==arguments[0]?arguments[0]:0,e=-1/0,r=null,i={};this._running=!0;var u=function u(o){null==r&&(r=o);var a=Math.round((o-r)*t.speed+n),l=(t.fps?1e3/t.fps:0)*t.speed;if(a>e+l&&!t._rollingBack&&(t.offset=a,e=a,t._apply(a,i)===t._animations.length))return void t.pause(!0);t._id=window.requestAnimationFrame(u)};this._id=window.requestAnimationFrame(u)}},{key:"_pause",value:function(){this._id&&window.cancelAnimationFrame(this._id),this._running=!1}},{key:"play",value:function(){if(!this._running)return this._rollingBack?this._rollback(this.offset):this._start(this.offset)}},{key:"stop",value:function(){this._pause(),this.offset=0,this.rollbackStartOffset=0,this._rollingBack=!1,this._apply(0)}},{key:"reachedToEnd",value:function(){return this.iterations>0&&this.offset>=this.iterations*this.duration}},{key:"restart",value:function(){var t=arguments.length>0&&void 0!==arguments[0]&&arguments[0];this.stop(t),this.play(t)}},{key:"pause",value:function(){this._pause()}},{key:"reverse",value:function(){this.direction=-this.direction}}],[{key:"build",value:function(t,n){delete t.animationSettings,t.options=at(t.options,t.root,"5c7f360c"),t.animations.map((function(n){n.settings=at(n.s,t.root,"5c7f360c"),delete n.s,t.animationSettings||(t.animationSettings=n.settings)}));var e=t.version;if(!(t=rt(t,n)))return null;var r=t.options||{},i=new this(t.animations,t.animationSettings,e);return{el:t.svg,options:r,player:i}}},{key:"push",value:function(t){return this.build(t)}},{key:"init",value:function(){var t=this,n=window.__SVGATOR_PLAYER__&&window.__SVGATOR_PLAYER__["5c7f360c"];Array.isArray(n)&&n.splice(0).forEach((function(n){return t.build(n)}))}}]),t}();function ft(t){return d(t)+""}function ct(t){var n=arguments.length>1&&void 0!==arguments[1]?arguments[1]:" ";return t&&t.length?t.map(ft).join(n):""}function ht(t){if(!t)return"transparent";if(null==t.a||t.a>=1){var n=function(t){return 1===(t=parseInt(t).toString(16)).length?"0"+t:t},e=function(t){return t.charAt(0)===t.charAt(1)},r=n(t.r),i=n(t.g),u=n(t.b);return e(r)&&e(i)&&e(u)&&(r=r.charAt(0),i=i.charAt(0),u=u.charAt(0)),"#"+r+i+u}return"rgba("+t.r+","+t.g+","+t.b+","+t.a+")"}function vt(t){return t?"url(#"+t+")":"none"}!function(){for(var t=0,n=["ms","moz","webkit","o"],e=0;e<n.length&&!window.requestAnimationFrame;++e)window.requestAnimationFrame=window[n[e]+"RequestAnimationFrame"],window.cancelAnimationFrame=window[n[e]+"CancelAnimationFrame"]||window[n[e]+"CancelRequestAnimationFrame"];window.requestAnimationFrame||(window.requestAnimationFrame=function(n){var e=Date.now(),r=Math.max(0,16-(e-t)),i=window.setTimeout((function(){n(e+r)}),r);return t=e+r,i},window.cancelAnimationFrame=window.clearTimeout)}();var yt={f:null,i:function(t,n,e){return 0===t?n:1===t?e:{x:B(t,n.x,e.x),y:B(t,n.y,e.y)}},u:function(t,n){return function(e){var r=n(e);t.setAttribute("rx",ft(r.x)),t.setAttribute("ry",ft(r.y))}}},gt={f:null,i:function(t,n,e){return 0===t?n:1===t?e:{width:B(t,n.width,e.width),height:B(t,n.height,e.height)}},u:function(t,n){return function(e){var r=n(e);t.setAttribute("width",ft(r.width)),t.setAttribute("height",ft(r.height))}}};Object.freeze({M:2,L:2,Z:0,H:1,V:1,C:6,Q:4,T:2,S:4,A:7});var dt={},pt=null;function mt(t){var n=function(){if(pt)return pt;if("object"!==("undefined"==typeof document?"undefined":e(document))||!document.createElementNS)return{};var t=document.createElementNS("http://www.w3.org/2000/svg","svg");return t&&t.style?(t.style.position="absolute",t.style.opacity="0.01",t.style.zIndex="-9999",t.style.left="-9999px",t.style.width="1px",t.style.height="1px",pt={svg:t}):{}}().svg;if(!n)return function(t){return null};var r=document.createElementNS(n.namespaceURI,"path");r.setAttributeNS(null,"d",t),r.setAttributeNS(null,"fill","none"),r.setAttributeNS(null,"stroke","none"),n.appendChild(r);var i=r.getTotalLength();return function(t){var n=r.getPointAtLength(i*t);return{x:n.x,y:n.y}}}function bt(t){return dt[t]?dt[t]:dt[t]=mt(t)}function wt(t,n,e,r){if(!t||!r)return!1;var i=["M",t.x,t.y];if(n&&e&&(i.push("C"),i.push(n.x),i.push(n.y),i.push(e.x),i.push(e.y)),n?!e:e){var u=n||e;i.push("Q"),i.push(u.x),i.push(u.y)}return n||e||i.push("L"),i.push(r.x),i.push(r.y),i.join(" ")}function xt(t,n,e,r){var i=arguments.length>4&&void 0!==arguments[4]?arguments[4]:1,u=wt(t,n,e,r),o=bt(u);try{return o(i)}catch(t){return null}}function At(t,n,e){return t+(n-t)*e}function kt(t,n,e){var r=arguments.length>3&&void 0!==arguments[3]&&arguments[3],i={x:At(t.x,n.x,e),y:At(t.y,n.y,e)};return r&&(i.a=_t(t,n)),i}function _t(t,n){return Math.atan2(n.y-t.y,n.x-t.x)}function St(t,n,e,r){var i=1-r;return i*i*t+2*i*r*n+r*r*e}function Ot(t,n,e,r){return 2*(1-r)*(n-t)+2*r*(e-n)}function jt(t,n,e,r){var i=arguments.length>4&&void 0!==arguments[4]&&arguments[4],u=xt(t,n,null,e,r);return u||(u={x:St(t.x,n.x,e.x,r),y:St(t.y,n.y,e.y,r)}),i&&(u.a=Mt(t,n,e,r)),u}function Mt(t,n,e,r){return Math.atan2(Ot(t.y,n.y,e.y,r),Ot(t.x,n.x,e.x,r))}function Pt(t,n,e,r,i){var u=i*i;return i*u*(r-t+3*(n-e))+3*u*(t+e-2*n)+3*i*(n-t)+t}function Et(t,n,e,r,i){var u=1-i;return 3*(u*u*(n-t)+2*u*i*(e-n)+i*i*(r-e))}function It(t,n,e,r,i){var u=arguments.length>5&&void 0!==arguments[5]&&arguments[5],o=xt(t,n,e,r,i);return o||(o={x:Pt(t.x,n.x,e.x,r.x,i),y:Pt(t.y,n.y,e.y,r.y,i)}),u&&(o.a=Rt(t,n,e,r,i)),o}function Rt(t,n,e,r,i){return Math.atan2(Et(t.y,n.y,e.y,r.y,i),Et(t.x,n.x,e.x,r.x,i))}function Ft(t,n,e){var r=arguments.length>3&&void 0!==arguments[3]&&arguments[3];if(Tt(n)){if(qt(e))return jt(n,e.start,e,t,r)}else if(Tt(e)){if(Bt(n))return jt(n,n.end,e,t,r)}else{if(Bt(n))return qt(e)?It(n,n.end,e.start,e,t,r):jt(n,n.end,e,t,r);if(qt(e))return jt(n,e.start,e,t,r)}return kt(n,e,t,r)}function Nt(t,n,e){var r=Ft(t,n,e,!0);return r.a=function(t){return arguments.length>1&&void 0!==arguments[1]&&arguments[1]?t+Math.PI:t}(r.a)/m,r}function Tt(t){return!t.type||"corner"===t.type}function qt(t){return null!=t.start&&!Tt(t)}function Bt(t){return null!=t.end&&!Tt(t)}var Lt=new N;var Ct={f:ft,i:q},Dt={f:ft,i:L};function zt(t,n,e){return t.map((function(t){return function(t,n,e){var r=t.v;if(!r||"g"!==r.t||r.s||!r.v||!r.r)return t;var i=e.getElementById(r.r),u=i&&i.querySelectorAll("stop")||[];return r.s=r.v.map((function(t,n){var e=u[n]&&u[n].getAttribute("offset");return{c:t,o:e=d(parseInt(e)/100)}})),delete r.v,t}(t,0,e)}))}var Vt={gt:"gradientTransform",c:{x:"cx",y:"cy"},rd:"r",f:{x:"x1",y:"y1"},to:{x:"x2",y:"y2"}};function Gt(t,n,r,i,u,o,a,l){return zt(t,0,l),n=function(t,n,e){for(var r,i,u,o=t.length-1,a={},l=0;l<=o;l++)(r=t[l]).e&&(r.e=n(r.e)),r.v&&"g"===(i=r.v).t&&i.r&&(u=e.getElementById(i.r))&&(a[i.r]={e:u,s:u.querySelectorAll("stop")});return a}(t,i,l),function(i){var u=r(i,t,Yt);if(!u)return"none";if("c"===u.t)return ht(u.v);if("g"===u.t){if(!n[u.r])return vt(u.r);var o=n[u.r];return function(t,n){for(var e=t.s,r=e.length;r<n.length;r++){var i=e[e.length-1].cloneNode();i.id=Qt(i.id),t.e.appendChild(i),e=t.s=t.e.querySelectorAll("stop")}for(var u=0,o=e.length,a=n.length-1;u<o;u++)e[u].setAttribute("stop-color",ht(n[Math.min(u,a)].c)),e[u].setAttribute("offset",n[Math.min(u,a)].o)}(o,u.s),Object.keys(Vt).forEach((function(t){if(void 0!==u[t])if("object"!==e(Vt[t])){var n,r="gt"===t?(n=u[t],Array.isArray(n)?"matrix("+n.join(" ")+")":""):u[t],i=Vt[t];o.e.setAttribute(i,r)}else Object.keys(Vt[t]).forEach((function(n){if(void 0!==u[t][n]){var e=u[t][n],r=Vt[t][n];o.e.setAttribute(r,e)}}))})),vt(u.r)}return"none"}}function Yt(t,e,r){if(0===t)return e;if(1===t)return r;if(e&&r){var i=e.t;if(i===r.t)switch(e.t){case"c":return{t:i,v:z(t,e.v,r.v)};case"g":if(e.r===r.r){var u={t:i,s:$t(t,e.s,r.s),r:e.r};return e.gt&&r.gt&&(u.gt=function(t,n,e){var r=n.length;if(r!==e.length)return T(t,n,e);for(var i=new Array(r),u=0;u<r;u++)i[u]=q(t,n[u],e[u]);return i}(t,e.gt,r.gt)),e.c?(u.c=C(t,e.c,r.c),u.rd=B(t,e.rd,r.rd)):e.f&&(u.f=C(t,e.f,r.f),u.to=C(t,e.to,r.to)),u}}if("c"===e.t&&"g"===r.t||"c"===r.t&&"g"===e.t){var o="c"===e.t?e:r,a="g"===e.t?n({},e):n({},r),l=a.s.map((function(t){return{c:o.v,o:t.o}}));return a.s="c"===e.t?$t(t,l,a.s):$t(t,a.s,l),a}}return T(t,e,r)}function $t(t,n,e){if(n.length===e.length)return n.map((function(n,r){return Ut(t,n,e[r])}));for(var r=Math.max(n.length,e.length),i=[],u=0;u<r;u++){var o=Ut(t,n[Math.min(u,n.length-1)],e[Math.min(u,e.length-1)]);i.push(o)}return i}function Ut(t,n,e){return{o:L(t,n.o,e.o||0),c:z(t,n.c,e.c||{})}}function Qt(t){return t.replace(/-fill-([0-9]+)$/,(function(t,n){return"-fill-"+(+n+1)}))}var Ht={fill:Gt,"fill-opacity":Dt,stroke:Gt,"stroke-opacity":Dt,"stroke-width":Ct,"stroke-dashoffset":{f:ft,i:q},"stroke-dasharray":{f:function(t){var n=arguments.length>1&&void 0!==arguments[1]?arguments[1]:" ";return t&&t.length>0&&(t=t.map((function(t){return d(t,4)}))),ct(t,n)},i:function(t,n,e){var r,i,u,o=n.length,a=e.length;if(o!==a)if(0===o)n=V(o=a,0);else if(0===a)a=o,e=V(o,0);else{var l=(u=(r=o)*(i=a)/function(t,n){for(var e;n;)e=n,n=t%n,t=e;return t||1}(r,i))<0?-u:u;n=G(n,Math.floor(l/o)),e=G(e,Math.floor(l/a)),o=a=l}for(var s=[],f=0;f<o;f++)s.push(d(B(t,n[f],e[f])));return s}},opacity:Dt,transform:function(t,n,r,i){if(!(t=function(t,n){if(!t||"object"!==e(t))return null;var r=!1;for(var i in t)t.hasOwnProperty(i)&&(t[i]&&t[i].length?(t[i].forEach((function(t){t.e&&(t.e=n(t.e))})),r=!0):delete t[i]);return r?t:null}(t,i)))return null;var u=function(e,i,u){var o=arguments.length>3&&void 0!==arguments[3]?arguments[3]:null;return t[e]?r(i,t[e],u):n&&n[e]?n[e]:o};return n&&n.a&&t.o?function(n){var e=r(n,t.o,Nt);return Lt.recomposeSelf(e,u("r",n,q,0)+e.a,u("k",n,C),u("s",n,C),u("t",n,C)).toString()}:function(t){return Lt.recomposeSelf(u("o",t,Ft,null),u("r",t,q,0),u("k",t,C),u("s",t,C),u("t",t,C)).toString()}},r:Ct,"#size":gt,"#radius":yt,_:function(t,n){if(Array.isArray(t))for(var e=0;e<t.length;e++)this[t[e]]=n;else this[t]=n}},Jt=function(t){!function(t,n){if("function"!=typeof n&&null!==n)throw new TypeError("Super expression must either be null or a function");t.prototype=Object.create(n&&n.prototype,{constructor:{value:t,writable:!0,configurable:!0}}),n&&l(t,n)}(o,t);var n,e,i=(n=o,e=s(),function(){var t,r=a(n);if(e){var i=a(this).constructor;t=Reflect.construct(r,arguments,i)}else t=r.apply(this,arguments);return c(this,t)});function o(){return r(this,o),i.apply(this,arguments)}return u(o,null,[{key:"build",value:function(t){var n=h(a(o),"build",this).call(this,t,Ht);if(!n)return null;n.el,n.options,function(t,n,e){t.play()}(n.player)}}]),o}(st);return Jt.init(),Jt}));
(function(s,i,o,w,a,b){w[o]=w[o]||{};w[o][s]=w[o][s]||[];w[o][s].push(i);})('5c7f360c',{"root":"e3fcs0BMNYy1","version":"2022-05-04","animations":[{"elements":{"e3fcs0BMNYy2":{"transform":{"data":{"o":{"x":512.350029,"y":500.03569,"type":"corner"},"t":{"x":-512.350029,"y":-500.03569}},"keys":{"r":[{"t":0,"v":0},{"t":5000,"v":-360}]}}},"e3fcs0BMNYy4":{"transform":{"data":{"o":{"x":495.044968,"y":499.954681,"type":"corner"},"t":{"x":-495.044968,"y":-499.954681}},"keys":{"r":[{"t":0,"v":0},{"t":5000,"v":360}]}}},"e3fcs0BMNYy6":{"transform":{"data":{"o":{"x":500.000153,"y":499.980004,"type":"corner"},"t":{"x":-500.000153,"y":-499.980004}},"keys":{"r":[{"t":0,"v":0},{"t":5000,"v":360}]}}}},"s":"MEDA1M2E2NGQ4ZmEwOWGQ4YzlmOTQ5YTk5NGRHFNjU2MDViNWI1YlU1PNzRkOGY5NEg5ZDkwOPGVSOWY5NDlhOTk0ZDPY1NWM1NzRkOTQ5ZjkJwOWQ4YzlmOTQ5YTk5FOWU0ZDY1NWI1NzRkOLTE5NDk3OTc0ZDY1NWNM1NzRkOGM5NzlmOTAS5ZDk5OGM5ZjkwNGQ2FNTkxQzhjOTdJOWU5MSDU3NGQ5ZTliOTA5MDIhmNGQ2NTVjYTg/"}],"options":"MHDAxMDg4MmY4MDgxNmJU3ZjgxMmY0NzJmSTcF5N2M2ZTcxMmY4YQ|"},'__SVGATOR_PLAYER__',window)]]></script>
</svg>