<?xml version="1.0" encoding="utf-8"?>
<!-- Generator: Adobe Illustrator 25.2.1, SVG Export Plug-In . SVG Version: 6.00 Build 0)  -->
<svg version="1.1" id="Layer_1" xmlns="http://www.w3.org/2000/svg" x="0px" y="0px"
	 viewBox="0 0 1000 1000" style="enable-background:new 0 0 1000 1000;" xml:space="preserve">
<style type="text/css">
	.st0{fill:#00AA83;}
	.st1{fill:#65BD50;}
	.st2{fill:#4D71B7;}
</style>
	<g>
	<g>
		<path class="st0" d="M139.4,654.04c0.3,0.75,0.65,1.49,0.97,2.23l1.98,4.45l3.96,8.89l0.98,2.23l1.08,2.18l2.18,4.35l4.36,8.71
			l1.09,2.18l1.19,2.12l2.39,4.24l4.78,8.49c0.77,1.43,1.64,2.81,2.51,4.18l2.59,4.13l5.19,8.25
			c14.29,21.71,30.57,42.17,48.78,60.81c36.39,37.31,80.1,67.66,128.2,88.57c24.04,10.46,49.14,18.63,74.86,24.22
			c25.71,5.61,52.03,8.68,78.43,9.21c52.8,0.98,106.05-8.35,155.58-27.92c49.53-19.5,95.25-49.06,133.56-86.45
			c38.32-37.36,69.21-82.53,90.06-132.06c10.4-24.76,18.44-50.56,23.71-76.93c5.32-26.36,7.95-53.25,7.99-80.13
			c-0.05-26.87-2.69-53.76-8.01-80.12c-5.31-26.36-13.32-52.16-23.73-76.92c-20.87-49.51-51.75-94.66-90.07-132.02
			c-38.31-37.37-84.02-66.93-133.54-86.42c-49.52-19.54-102.75-28.89-155.54-27.92c-26.4,0.53-52.71,3.6-78.42,9.2
			c-25.72,5.59-50.81,13.76-74.85,24.2c-24.05,10.44-46.99,23.29-68.5,38.12c-21.51,14.84-41.48,31.81-59.71,50.42
			c-18.2,18.65-34.5,39.09-48.79,60.8c-14.29,21.73-26.32,44.88-36.16,68.89c-19.63,48.07-29.59,99.93-29.62,151.77
			c0.05-25.92,2.59-51.84,7.72-77.24c5.1-25.41,12.84-50.26,22.87-74.12c20.11-47.71,49.89-91.24,86.84-127.23
			c36.94-36.02,81.02-64.48,128.73-83.24c47.71-18.81,98.99-27.76,149.88-26.8c25.45,0.53,50.79,3.51,75.55,8.92
			c24.76,5.4,48.92,13.28,72.06,23.36c13.11,5.71,25.86,12.17,38.23,19.28c-12.45-6.96-25.27-13.26-38.42-18.79
			c-23.23-9.78-47.43-17.31-72.17-22.37c-24.73-5.07-49.97-7.7-75.24-7.9c-50.54-0.31-101.24,9.26-148.17,28.44
			c-46.93,19.14-90.1,47.62-126.14,83.4c-36.01,35.79-65.07,78.68-84.59,125.64c-19.57,46.94-29.65,97.79-29.71,148.65
			c0.06,25.43,2.57,50.86,7.54,75.8c4.97,24.94,12.41,49.38,22.17,72.86c19.55,46.95,48.58,89.85,84.6,125.63
			c36.06,35.76,79.21,64.25,126.14,83.39c46.93,19.17,97.62,28.75,148.16,28.44c25.27-0.2,50.51-2.82,75.24-7.89
			c24.73-5.06,48.93-12.59,72.16-22.37c11.11-4.68,21.99-9.89,32.61-15.59c-10.55,5.83-21.37,11.19-32.44,16.01
			c-23.14,10.06-47.28,17.96-72.04,23.36c-24.75,5.42-50.09,8.39-75.53,8.93c-50.88,0.97-102.15-7.98-149.86-26.77
			c-47.71-18.74-91.79-47.2-128.74-83.21c-36.95-35.99-66.74-79.51-86.85-127.22c-10.03-23.86-17.76-48.71-22.87-74.12
			c-5.13-25.4-7.67-51.32-7.72-77.24c0.04,51.84,9.99,103.69,29.62,151.77L139.4,654.04z M651.22,853.12
			c-46.33,18.92-96.36,28.37-146.27,28.07c-24.96-0.2-49.87-2.79-74.28-7.8c-24.41-5-48.3-12.43-71.23-22.09
			c-22.93-9.65-44.9-21.58-65.48-35.51c-20.6-13.93-39.77-29.91-57.29-47.51c-17.49-17.64-33.25-36.97-46.97-57.65
			c-13.74-20.67-25.37-42.71-34.85-65.62c-9.47-22.92-16.66-46.77-21.44-71.09c-4.79-24.32-7.17-49.12-7.17-73.91
			c0.02-24.8,2.38-49.59,7.18-73.91c4.78-24.32,11.98-48.17,21.44-71.09c9.49-22.91,21.13-44.94,34.86-65.61
			c13.72-20.68,29.47-40.01,46.96-57.65c17.52-17.6,36.7-33.57,57.29-47.5c20.58-13.94,42.54-25.86,65.48-35.51
			c22.93-9.65,46.82-17.09,71.23-22.08c24.41-5.01,49.32-7.6,74.28-7.8c49.91-0.31,99.94,9.14,146.26,28.06
			c46.32,18.89,88.94,47,124.54,82.31c4.13,4.11,8.16,8.32,12.1,12.61c29.46,33.13,53.21,71.18,69.82,112.1
			c18.88,46.27,28.42,96.15,28.47,146.09c-0.04,49.94-9.64,99.8-28.51,146.07c-9.47,23.11-21.05,45.38-34.79,66.31
			c-11.41,17.35-24.17,33.83-38.18,49.22c-2.93,3.11-5.89,6.19-8.92,9.2C740.16,806.11,697.54,834.23,651.22,853.12z"/>
	</g>
		<g>
		<path class="st1" d="M801.98,500c-0.02,38.88-7.9,77.76-23.2,113.42c-15.24,35.68-37.81,68.09-65.69,94.72
			c-27.9,26.61-61.04,47.43-96.72,60.86c-35.69,13.47-73.81,19.47-111.42,18.17c-0.48-0.02-0.96-0.05-1.44-0.07
			c0.48,0.01,0.96,0.03,1.44,0.03c37.58,0.32,75.32-6.71,110.27-20.91c34.95-14.18,67.15-35.31,94.03-61.92
			c26.85-26.62,48.56-58.54,63.12-93.53c14.6-34.97,22.12-72.86,22.18-110.76c-0.07-37.9-7.59-75.79-22.19-110.76
			c-14.59-34.98-36.27-66.9-63.13-93.52c-26.89-26.6-59.07-47.74-94.02-61.91c-34.51-14.01-71.71-21.03-108.81-20.91
			c37.13-1.11,74.71,4.89,109.94,18.17c35.68,13.42,68.82,34.23,96.72,60.82c27.88,26.61,50.46,59.02,65.71,94.7
			C794.08,422.24,801.96,461.11,801.98,500c-0.01-38.88-7.41-77.77-21.95-113.93c-14.49-36.18-36.03-69.62-63.14-98
			c-27.1-28.39-59.8-51.69-95.98-68.01c-18.09-8.15-37.01-14.64-56.47-19.16c-19.45-4.54-39.41-7.16-59.5-7.86
			c-40.15-1.31-80.92,5.18-119.02,19.66c-38.1,14.43-73.43,36.72-103.15,65.15c-29.7,28.45-53.74,63.05-69.98,101.15l-2.93,7.19
			c-0.95,2.41-2.02,4.77-2.82,7.24l-2.55,7.34c-0.82,2.45-1.76,4.88-2.44,7.38l-2.18,7.46c-0.7,2.49-1.52,4.96-2.07,7.49l-1.79,7.56
			l-0.89,3.78l-0.44,1.89l-0.35,1.91c-4.15,20.32-6.18,41.05-6.22,61.76c0.01,41.43,8.42,82.93,24.74,120.99
			c16.25,38.08,40.3,72.67,70,101.1c29.72,28.41,65.04,50.69,103.13,65.12c38.09,14.45,78.83,20.97,118.97,19.66
			c20.07-0.69,40.03-3.31,59.48-7.84c19.46-4.51,38.37-11.01,56.46-19.14c36.18-16.31,68.88-39.59,95.98-67.97
			c27.11-28.37,48.65-61.8,63.15-97.98C794.57,577.77,801.97,538.88,801.98,500z M660.94,266.54
			c15.21,10.32,29.35,22.18,42.29,35.19c12.91,13.05,24.53,27.36,34.65,42.65c10.14,15.28,18.69,31.58,25.69,48.5
			c14,33.86,21.13,70.49,21.09,107.12c0.03,36.63-7.09,73.25-21.09,107.11c-7.01,16.92-15.58,33.21-25.7,48.49
			c-10.12,15.29-21.74,29.6-34.65,42.65c-12.93,13.02-27.09,24.86-42.29,35.18c-15.2,10.33-31.42,19.18-48.36,26.36
			c-16.95,7.17-34.6,12.72-52.65,16.46c-18.05,3.75-36.49,5.71-54.96,5.9c-36.94,0.32-74.01-6.59-108.37-20.53
			c-0.43-0.18-0.86-0.37-1.29-0.54c-33.26-15.29-63.35-36.88-88.3-63.12c-25.29-26.57-45.36-57.83-58.84-91.6
			c-13.54-33.77-20.4-70.02-20.42-106.36c0.02-36.35,6.93-72.58,20.48-106.34c13.5-33.76,33.57-65,58.86-91.55
			c12.67-13.25,26.57-25.39,41.59-36.06c15.03-10.64,31.07-19.99,47.96-27.62c0.57-0.26,1.14-0.5,1.71-0.75
			c33.87-13.48,70.31-20.17,106.64-19.86c36.95,0.34,73.74,7.95,107.62,22.36C629.52,247.36,645.74,256.2,660.94,266.54z"/>
	</g>
		<g>
		<g>
			<path class="st2" d="M990.46,596.57c-6.32,31.78-15.89,62.89-28.37,92.76c-24.98,59.76-62.01,114.37-108.04,159.74
				c-46,45.41-100.99,81.56-160.75,105.63c-29.87,12.07-60.92,21.09-92.52,27.01c-31.6,5.92-63.75,8.69-95.84,8.38
				c-32.09-0.35-64.11-3.79-95.45-10.34c-31.34-6.53-61.99-16.19-91.39-28.71c-58.81-25.01-112.47-61.68-157.19-107.05
				C116.18,798.66,80.4,744.63,56.3,685.82C32.12,627.04,19.73,563.54,19.79,500c-0.05-63.54,12.36-127.03,36.53-185.81
				c12.1-29.37,27.01-57.62,44.58-84.13c17.58-26.5,37.68-51.36,60.05-74.04c22.39-22.65,46.94-43.19,73.31-61.14
				C260.63,76.94,288.73,61.5,318.13,49c29.4-12.5,60.04-22.17,91.38-28.7c31.34-6.55,63.35-9.99,95.44-10.34
				c32.09-0.32,64.23,2.45,95.83,8.37c31.59,5.91,62.64,14.94,92.51,27c59.76,24.07,114.74,60.21,160.75,105.61
				c46.03,45.37,83.06,99.98,108.05,159.73c12.48,29.87,22.05,60.99,28.37,92.76c6.32,31.77,9.49,64.17,9.54,96.57
				c0.07-64.81-12.59-129.62-37.26-189.61c-12.36-29.98-27.55-58.81-45.49-85.86C899.3,197.5,878.8,172.12,855.97,149
				c-45.63-46.27-100.38-83.68-160.4-109.19c-30-12.77-61.27-22.62-93.25-29.28C570.34,3.85,537.67,0.35,504.95,0
				c-32.72-0.32-65.52,2.52-97.76,8.56c-32.24,6.04-63.92,15.25-94.39,27.57C251.83,60.7,195.75,97.58,148.83,143.9
				C101.89,190.19,64.13,245.9,38.65,306.86c-12.73,30.48-22.5,62.22-28.93,94.64C3.28,433.92,0.03,466.96,0,500
				c0.05,33.04,3.28,66.08,9.73,98.5c6.46,32.41,16.21,64.15,28.94,94.63c25.49,60.96,63.25,116.66,110.19,162.94
				c46.92,46.31,102.99,83.18,163.95,107.76c30.47,12.31,62.15,21.53,94.38,27.57c32.23,6.04,65.03,8.88,97.75,8.56
				c32.72-0.35,65.38-3.85,97.36-10.52c31.98-6.65,63.25-16.51,93.25-29.27c30.01-12.75,58.69-28.5,85.59-46.8
				c26.91-18.31,51.96-39.27,74.8-62.37c22.83-23.13,43.34-48.49,61.28-75.53c17.94-27.05,33.14-55.88,45.49-85.85
				c24.67-59.98,37.34-124.8,37.27-189.61C999.95,532.4,996.78,564.8,990.46,596.57z"/>
		</g>
			<g>
			<path class="st2" d="M955.37,313.44c-24.51-58.93-60.92-112.79-106.11-157.73c-45.21-44.94-99.34-80.8-158.24-104.9
				c-29.45-12.06-60.09-21.15-91.31-27.15c-31.22-6.01-63.01-8.92-94.76-8.77c-31.75,0.18-63.48,3.42-94.56,9.75
				c-31.09,6.31-61.53,15.73-90.75,27.99c-29.22,12.26-57.21,27.42-83.45,45.15c-26.24,17.72-50.7,38.04-73.03,60.45
				c-22.3,22.44-42.4,47.06-59.91,73.39C85.72,257.94,70.85,286,58.75,315.19C46.67,344.4,37.49,374.8,31.39,405.8
				c-6.11,31-9.14,62.6-9.12,94.2c0.05-31.59,3.14-63.18,9.31-94.16c6.16-30.98,15.39-61.34,27.52-90.5
				C83.34,257,119.39,203.69,164.13,159.2c44.75-44.5,98.34-79.98,156.64-103.84c29.15-11.94,59.48-20.93,90.38-26.88
				c30.9-5.95,62.37-8.83,93.8-8.68c31.44,0.18,62.84,3.39,93.61,9.66c30.77,6.25,60.9,15.57,89.81,27.72
				c28.92,12.14,56.63,27.14,82.59,44.69c25.98,17.54,50.18,37.66,72.28,59.84c22.08,22.21,41.97,46.58,59.3,72.64
				c17.35,26.05,32.06,53.83,44.03,82.73c11.95,28.9,21.03,58.99,27.07,89.68c6.04,30.68,9.04,61.96,9.03,93.24
				c-0.01,31.28-2.99,62.55-9.04,93.24c-6.04,30.68-15.12,60.77-27.07,89.67c-11.97,28.89-26.7,56.66-44.04,82.72
				c-17.33,26.06-37.22,50.43-59.3,72.64c-22.1,22.19-46.31,42.29-72.28,59.83c-25.97,17.55-53.67,32.55-82.59,44.69
				c-28.92,12.14-59.04,21.46-89.81,27.71c-30.77,6.26-62.17,9.47-93.6,9.66c-31.44,0.15-62.9-2.73-93.8-8.67
				c-30.9-5.95-61.23-14.93-90.37-26.87c-58.3-23.85-111.89-59.34-156.64-103.83C119.4,796.31,83.35,743,59.1,684.66
				c-12.13-29.16-21.36-59.52-27.52-90.5c-6.17-30.98-9.26-62.57-9.31-94.16c-0.01,31.59,3.01,63.19,9.12,94.2
				c6.1,31,15.28,61.4,27.35,90.61c12.1,29.19,26.96,57.26,44.49,83.58c17.51,26.33,37.61,50.95,59.91,73.39
				c22.33,22.41,46.78,42.74,73.03,60.46c26.24,17.73,54.23,32.89,83.45,45.15c29.22,12.27,59.66,21.69,90.75,28
				c31.09,6.33,62.81,9.57,94.57,9.75c31.75,0.15,63.55-2.76,94.76-8.77c31.22-6.01,61.87-15.09,91.31-27.16
				c58.91-24.1,113.04-59.95,158.25-104.91c45.19-44.94,81.62-98.8,106.11-157.74c12.25-29.46,21.58-60.14,27.8-91.44
				c6.23-31.3,9.36-63.21,9.39-95.12c-0.05-31.91-3.17-63.82-9.4-95.12C976.95,373.58,967.62,342.9,955.37,313.44z"/>
		</g>
	</g>
</g>
</svg>
